<svg width="1386" height="1170" viewBox="0 0 1386 1170" fill="none" xmlns="http://www.w3.org/2000/svg">
<path d="M597.285 280.219C789.957 280.219 945.96 420.329 945.96 593.372V906.526H248.609V593.372C248.609 420.329 404.612 280.219 597.285 280.219Z" fill="#AA2B24"/>
<path d="M597.285 280.219C404.612 280.219 248.609 420.328 248.609 593.372V859.637H788.714C827.249 859.637 858.325 831.726 858.325 797.118V386.836C792.443 318.735 697.35 280.219 597.285 280.219Z" fill="#D24034"/>
<path d="M422.634 420.887H666.893C705.428 420.887 736.504 448.797 736.504 483.406V686.593C736.504 721.202 705.428 749.112 666.893 749.112H422.634C384.1 749.112 353.023 721.202 353.023 686.593V483.406C353.023 448.797 384.1 420.887 422.634 420.887Z" fill="#DB665D"/>
<path d="M701.703 420.887V170.811C701.703 145.134 725.321 123.922 753.911 123.922H1172.2C1200.79 123.922 1224.41 145.134 1224.41 170.811V421.446C1224.41 447.123 1200.79 468.335 1172.2 468.335H980.768L910.535 530.296V467.777H753.911C725.321 467.777 701.703 447.123 701.703 420.887Z" fill="#F3A845"/>
<path d="M1172.2 358.368V123.363H753.911C725.321 123.363 701.703 144.575 701.703 170.253V420.887H1102.59C1141.12 420.887 1172.2 392.977 1172.2 358.368Z" fill="#EECC61"/>
<path d="M806.122 170.811H1050.38C1078.97 170.811 1102.59 192.022 1102.59 217.7V311.478C1102.59 337.156 1078.97 358.368 1050.38 358.368H806.122C777.532 358.368 753.914 337.156 753.914 311.478V217.7C753.914 191.464 777.532 170.811 806.122 170.811Z" fill="#FCE79C"/>
<path d="M179 969.046H1015.57V1062.82H179V969.046Z" fill="#474747"/>
<path d="M213.805 905.968H980.766V968.487H213.805V905.968Z" fill="#474747"/>
<path d="M597.286 702.782C626.12 702.782 649.494 681.788 649.494 655.892C649.494 629.996 626.12 609.003 597.286 609.003C568.452 609.003 545.078 629.996 545.078 655.892C545.078 681.788 568.452 702.782 597.286 702.782Z" fill="#EECC61"/>
<path d="M597.285 702.781C591.07 702.781 585.477 701.665 579.883 699.99V922.156H614.688V699.99C609.094 701.665 602.879 702.781 597.285 702.781Z" fill="#F3A845"/>
<path d="M545.081 655.892C545.081 644.17 550.053 632.447 559.376 623.516L405.859 577.743V734.041L559.376 688.268C550.053 679.337 545.081 667.614 545.081 655.892Z" fill="#F3A845"/>
<path d="M635.195 623.516C654.463 641.378 654.463 669.847 635.195 687.709L788.712 733.482V577.185L635.195 623.516Z" fill="#F3A845"/>
<path d="M253.586 212.676L278.447 190.348L348.058 253.425L323.197 275.753L253.586 212.676Z" fill="#D24034"/>
<path d="M370.43 155.181H405.235V248.959H370.43V155.181Z" fill="#D24034"/>
<path d="M213.805 295.849H318.221V327.108H213.805V295.849Z" fill="#D24034"/>
<path d="M840.924 217.7C840.924 209.327 832.844 202.07 823.521 202.07C819.171 202.07 814.199 203.745 811.091 206.536L758.883 253.425L783.744 275.754L806.119 255.658V358.926H771.313V390.186H875.729V358.926H840.924V217.7Z" fill="white"/>
<path d="M980.768 217.7C980.768 209.327 972.688 202.07 963.365 202.07C959.014 202.07 954.042 203.745 950.935 206.536L898.727 253.425L923.588 275.754L945.962 255.658V358.926H911.157V390.186H1015.57V358.926H980.768V217.7Z" fill="white"/>
<path d="M1132.42 314.828C1146.71 295.291 1154.79 272.404 1154.79 248.96C1154.79 223.282 1131.17 202.07 1102.58 202.07C1073.99 202.07 1050.38 223.282 1050.38 248.96V264.589H1085.18V248.96C1085.18 240.587 1093.26 233.33 1102.58 233.33C1111.91 233.33 1119.99 240.587 1119.99 248.96C1119.99 266.264 1114.39 283.01 1103.83 297.524L1053.48 365.625C1047.89 372.881 1050.38 382.371 1058.45 387.395C1061.56 389.069 1064.67 390.186 1068.4 390.186H1155.41V358.926H1100.1L1132.42 314.828Z" fill="white"/>
<path d="M179 1015.94H928.559C957.149 1015.94 980.767 994.723 980.767 969.046H179V1015.94Z" fill="#686868"/>
<path d="M213.805 937.227H911.155C930.423 937.227 945.961 923.272 945.961 905.968H213.805V937.227Z" fill="#686868"/>
</svg>
