<svg width="1386" height="1170" viewBox="0 0 1386 1170" fill="none" xmlns="http://www.w3.org/2000/svg">
<path d="M1157.9 820.004C1194.57 755.81 1215.7 683.244 1215.7 605.653C1215.7 346.645 982.007 136.76 693.62 136.76C405.232 136.76 171.539 346.645 171.539 605.653C171.539 689.384 195.779 768.091 239.285 836.192L1157.9 820.004Z" fill="#3C2B8E"/>
<path d="M1159.14 612.352C1120.61 628.54 1084.56 640.82 1049.13 650.31V948.95C1093.88 911.55 1131.17 867.452 1159.14 818.33V612.352Z" fill="#F9B50B"/>
<path d="M1141.74 846.24C1119.99 851.822 1105.07 834.518 1105.07 834.518L1096.99 903.177C1113.15 885.314 1128.07 866.335 1141.74 846.24Z" fill="#F79D0D"/>
<path d="M1159.14 615.701V176.393C1159.14 154.623 1139.25 137.318 1115.63 137.318H1005.62C1029.86 137.318 1049.13 155.181 1049.13 176.393V653.659C1083.94 644.728 1120.61 631.889 1159.14 615.701Z" fill="#2299F2"/>
<path d="M1090.77 185.882H1049.13V948.95C1069.64 932.203 1088.29 913.783 1105.07 894.245V199.279C1105.07 192.022 1098.23 185.882 1090.77 185.882Z" fill="#ABE4FE"/>
<path d="M1049.13 835.634V948.95C1069.64 932.204 1088.29 913.783 1105.07 894.246V835.076C1105.07 840.658 1102.58 846.24 1098.85 850.706C1081.45 870.243 1049.13 858.521 1049.13 835.634Z" fill="#82C6F9"/>
<path d="M1049.13 649.752C847.756 702.223 694.239 643.053 524.563 489.547C431.334 405.258 329.404 371.207 236.797 362.834V834.518C326.296 977.977 496.594 1074.55 692.996 1074.55C831.596 1074.55 957.765 1025.98 1050.99 946.718C1050.99 870.802 1050.99 761.393 1050.99 648.635C1050.37 649.752 1049.75 649.752 1049.13 649.752Z" fill="#FBC840"/>
<path d="M978.277 894.804H310.138C297.086 894.804 285.277 892.013 274.711 886.989C369.804 1001.42 522.078 1075.1 692.997 1075.1C831.597 1075.1 957.767 1026.54 1051 947.275C1051 917.132 1051 881.965 1051 842.891C1043.54 873.034 1013.7 894.804 978.277 894.804Z" fill="#F9B50B"/>
<path d="M1050.99 176.393C1050.99 154.623 1031.11 137.318 1007.49 137.318C978.897 137.318 302.678 137.318 262.901 137.318C248.606 137.318 236.797 147.924 236.797 160.763V367.299C329.404 375.672 430.713 409.723 524.563 494.012C694.861 648.077 848.999 707.247 1051.62 653.659C1050.99 428.144 1050.99 188.673 1050.99 176.393Z" fill="#52B0F5"/>
<path d="M236.797 835.076C265.387 881.407 303.3 922.715 346.807 957.882V385.72C309.515 373.44 272.224 366.183 236.797 362.834V835.076Z" fill="#F9B50B"/>
<path d="M310.138 894.804C297.086 894.804 285.277 892.013 274.711 886.989C295.843 912.667 320.704 936.111 347.429 957.323V894.804H310.138Z" fill="#F79D0D"/>
<path d="M321.324 136.76H262.901C248.606 136.76 236.797 147.366 236.797 160.204V366.741C272.224 370.09 309.515 377.347 346.807 389.627V160.204C347.428 147.366 335.619 136.76 321.324 136.76Z" fill="#2299F2"/>
<path d="M738.371 602.304C729.048 602.304 722.211 595.606 722.211 587.233L724.697 520.806C724.697 512.991 732.777 506.293 741.478 506.851C750.18 506.851 757.638 513.549 757.016 521.922L754.53 588.349C754.53 596.164 747.072 602.304 738.371 602.304Z" fill="#D9F5FF"/>
<path d="M660.06 602.304C651.358 602.304 644.522 596.164 643.9 588.349L641.414 521.922C641.414 514.107 648.251 507.409 656.952 506.851C665.654 506.851 673.112 512.991 673.733 520.806L676.219 587.232C676.841 595.605 669.383 602.304 660.06 602.304Z" fill="#D9F5FF"/>
<path d="M743.344 579.976H656.331C648.251 579.976 641.414 586.116 641.414 593.373V647.519C641.414 654.775 648.251 660.915 656.331 660.915H743.344C751.424 660.915 758.261 654.775 758.261 647.519V593.373C757.639 586.116 751.424 579.976 743.344 579.976Z" fill="#F7577A"/>
<path d="M698.591 647.519V593.373C698.591 586.116 705.428 579.976 713.507 579.976H655.706C647.626 579.976 640.789 586.116 640.789 593.373V647.519C640.789 654.775 647.626 660.915 655.706 660.915H713.507C705.428 660.915 698.591 654.775 698.591 647.519Z" fill="#D93A59"/>
<path d="M633.329 555.973C629.6 555.973 625.871 555.973 622.763 556.531C617.169 557.648 611.576 555.973 608.468 551.508C597.902 537.552 580.499 528.621 561.232 528.621C536.993 528.621 516.482 542.018 507.781 561.555C505.295 567.696 498.458 571.045 491.621 569.37C489.135 568.812 486.028 568.812 482.92 568.812C464.896 569.37 449.358 582.767 448.736 598.955C448.115 616.818 464.274 631.889 483.542 631.889H630.221C653.839 631.889 673.107 614.027 672.485 592.815C671.863 573.278 654.461 557.09 633.329 555.973Z" fill="#ABE4FE"/>
<path d="M537.614 622.4C540.1 620.725 542.586 619.609 545.072 618.492C551.909 615.701 555.017 609.561 553.152 603.421C547.559 583.325 555.017 561.555 574.906 548.717C581.742 544.251 588.579 541.46 596.659 539.785C586.715 533.087 574.906 528.621 561.232 528.621C536.993 528.621 516.482 542.018 507.781 561.555C505.295 567.696 498.458 571.045 491.621 569.37C489.135 568.812 486.028 568.812 482.92 568.812C464.896 569.37 449.358 582.767 448.736 598.955C448.115 616.818 464.274 631.889 483.542 631.889H528.913C530.777 627.982 533.885 624.633 537.614 622.4Z" fill="#82C6F9"/>
<path d="M696.725 229.423C619.035 230.539 555.018 286.918 551.91 357.252C550.045 405.816 577.393 448.798 619.656 472.8C633.33 480.615 641.41 494.571 641.41 509.084V515.224C641.41 522.481 647.625 528.063 655.705 528.063H742.718C750.798 528.063 757.013 522.481 757.013 515.224V509.084C757.013 494.571 765.093 480.615 778.767 472.8C819.166 449.356 846.513 408.049 846.513 361.717C846.513 288.034 779.388 228.306 696.725 229.423Z" fill="#FBC840"/>
<path d="M807.357 407.49C798.034 407.49 788.712 404.699 781.253 400.233C776.281 397.442 770.066 397.442 766.337 401.35C749.555 416.979 725.938 427.027 699.833 427.027C673.729 427.027 650.112 417.538 633.33 401.35C629.601 397.442 622.764 397.442 618.414 400.233C610.955 404.699 602.254 407.49 592.31 407.49C578.015 407.49 565.584 401.908 556.883 392.977C565.584 426.469 589.202 454.937 620.278 473.358C633.952 481.173 642.032 495.128 642.032 509.642V515.782C642.032 523.039 648.247 528.621 656.327 528.621H743.34C751.42 528.621 757.635 523.039 757.635 515.782V509.642C757.635 495.128 765.715 481.173 779.389 473.358C810.465 455.496 834.083 427.027 842.784 393.535C833.461 401.908 821.031 407.49 807.357 407.49Z" fill="#F9B50B"/>
<path d="M697.971 229.423C657.571 230.539 624.631 286.918 623.388 356.694C622.145 405.258 636.44 448.239 658.193 472.242C665.03 480.057 669.38 494.012 669.38 508.526V514.666C669.38 521.923 672.488 527.505 676.839 527.505H721.588C725.939 527.505 729.047 521.923 729.047 514.666V508.526C729.047 494.012 733.397 480.057 740.234 472.242C761.366 448.798 775.04 407.49 775.04 361.159C775.04 288.034 740.856 228.306 697.971 229.423Z" fill="#F9B50B"/>
<path d="M765.714 401.35C748.933 416.979 725.315 427.027 699.211 427.027C673.107 427.027 649.489 417.538 632.707 401.35C630.843 399.675 628.978 398.559 626.492 398.559C631.464 429.818 643.273 456.054 658.19 472.8C665.027 480.615 669.377 494.57 669.377 509.083V515.224C669.377 522.48 672.485 528.062 676.836 528.062H721.585C725.936 528.062 729.044 522.48 729.044 515.224V509.083C729.044 494.57 733.394 480.615 740.231 472.8C755.769 455.496 766.957 429.26 771.929 398.559C770.064 398.559 767.578 399.675 765.714 401.35Z" fill="#F79D0D"/>
<path d="M1160.38 218.816L931.663 100.477C909.289 88.7544 880.077 96.0111 867.646 116.106L722.21 342.18C709.158 362.275 717.237 388.511 739.612 399.675L967.712 518.015C990.087 529.737 1019.3 522.481 1031.73 502.385L1177.17 276.312C1190.22 256.216 1182.76 230.539 1160.38 218.816Z" fill="#ABE4FE"/>
<path d="M1021.78 146.808L931.663 100.477C909.289 88.7544 880.077 96.0111 867.646 116.106L722.21 342.18C709.158 362.275 717.237 388.511 739.612 399.675L826.626 444.89L995.059 183.091C996.924 180.858 996.924 177.509 996.302 175.276C989.465 148.482 1021.78 146.808 1021.78 146.808Z" fill="#82C6F9"/>
<path d="M1139.88 252.308L909.912 132.852C908.048 131.736 906.183 132.294 904.94 133.969L774.42 336.598C773.177 338.272 773.799 339.947 775.663 341.063L1005.63 460.519C1007.49 461.636 1009.36 461.078 1010.6 459.403L1141.12 256.774C1141.74 255.099 1141.12 253.425 1139.88 252.308Z" fill="#52B0F5"/>
<path d="M909.912 133.411C908.048 132.294 906.183 132.853 904.94 134.527L774.42 337.156C773.177 338.831 773.799 340.505 775.663 341.622L863.92 387.395L995.061 183.649C995.683 181.975 996.304 180.858 996.926 179.184L909.912 133.411Z" fill="#2299F2"/>
<path d="M964.603 334.923C944.714 339.947 924.204 329.341 918.61 311.478L913.638 294.732C908.044 276.869 888.156 266.264 867.645 271.287L806.736 285.801L773.795 337.156C772.552 338.83 773.174 340.505 775.038 341.621L1005 461.077C1006.87 462.194 1008.73 461.636 1009.97 459.961L1113.15 299.756L964.603 334.923Z" fill="#2299F2"/>
<path d="M914.263 294.732C908.67 276.869 888.781 266.264 868.27 271.287L807.361 285.801L774.42 337.156C773.177 338.83 773.799 340.505 775.663 341.621L863.92 387.394L916.749 305.338L914.263 294.732Z" fill="#1588E8"/>
<path d="M1192.08 327.108L963.359 208.21C940.984 196.488 911.772 203.744 899.342 223.84L753.905 449.913C740.853 470.009 748.933 496.245 771.308 507.409L999.407 625.748C1021.78 637.471 1050.99 630.214 1063.42 610.119L1208.86 384.045C1221.91 364.508 1214.45 338.272 1192.08 327.108Z" fill="#D9F5FF"/>
<path d="M1171.57 360.6L941.608 241.144C939.743 240.028 937.879 240.586 936.636 242.261L806.115 444.89C804.872 446.564 805.494 448.239 807.358 449.355L1037.32 568.811C1039.19 569.928 1041.05 569.369 1042.29 567.695L1172.82 365.066C1173.44 363.391 1172.82 361.159 1171.57 360.6Z" fill="#52B0F5"/>
<path d="M1053.48 255.099L963.359 208.21C940.984 196.488 911.772 203.744 899.342 223.84L753.905 449.913C740.853 470.009 748.933 496.244 771.308 507.409L858.321 552.623L1026.75 290.825C1028.62 288.592 1028.62 285.243 1028 283.01C1021.16 256.216 1053.48 255.099 1053.48 255.099Z" fill="#ABE4FE"/>
<path d="M940.983 241.144C939.118 240.028 937.254 240.586 936.011 242.261L805.49 444.89C804.247 446.564 804.869 448.239 806.733 449.355L894.99 495.128L1026.13 291.383C1026.75 289.708 1027.37 288.592 1028 286.917L940.983 241.144Z" fill="#2299F2"/>
<path d="M996.299 443.215C976.41 448.239 955.899 437.633 950.306 419.77L945.334 403.024C939.74 385.161 919.851 374.556 899.341 379.579L838.431 394.093L805.49 445.448C804.247 447.122 804.869 448.797 806.733 449.913L1036.7 569.369C1038.56 570.486 1040.43 569.928 1041.67 568.253L1145.46 407.49L996.299 443.215Z" fill="#83D912"/>
<path d="M1013.09 324.318C998.791 317.061 980.145 321.527 972.065 334.365C963.985 347.204 968.958 363.95 983.253 371.207C997.548 378.464 1016.19 373.998 1024.27 361.159C1032.35 348.32 1027.38 331.574 1013.09 324.318Z" fill="#FBC840"/>
<path d="M1003.76 355.576C993.819 350.553 990.711 338.83 996.305 329.899C998.791 325.991 1002.52 323.2 1006.87 321.526C993.819 317.618 978.902 322.642 972.065 333.806C963.985 346.645 968.958 363.391 983.253 370.648C997.548 377.905 1016.19 373.439 1024.27 360.6C1025.52 358.367 1026.76 355.576 1027.38 353.344C1020.54 358.367 1011.22 359.484 1003.76 355.576Z" fill="#F9B50B"/>
<path d="M948.441 412.514L945.334 402.466C939.74 384.604 919.851 373.998 899.341 379.022L838.431 393.535L805.49 444.89C804.247 446.565 804.869 448.239 806.733 449.356L894.99 495.129C887.532 427.027 948.441 412.514 948.441 412.514Z" fill="#5BBF02"/>
</svg>
