<svg width="1386" height="1170" viewBox="0 0 1386 1170" fill="none" xmlns="http://www.w3.org/2000/svg">
<path d="M399.644 499.594C390.943 499.594 383.484 492.896 383.484 485.081V405.257C383.484 397.443 390.943 390.744 399.644 390.744C408.345 390.744 415.804 397.443 415.804 405.257V485.639C415.804 493.454 408.345 499.594 399.644 499.594Z" fill="#5BBF02"/>
<path d="M545.702 696.083C559.997 673.755 568.077 648.077 568.077 620.725C568.077 544.251 504.681 481.174 422.64 470.568C415.182 469.451 407.723 472.8 399.644 472.8C306.415 472.8 277.203 536.436 277.203 620.167C277.203 647.519 280.311 673.196 287.769 695.525H545.702V696.083Z" fill="#F7577A"/>
<path d="M305.794 696.082C291.499 673.754 283.419 648.077 283.419 620.725C283.419 581.65 300.2 545.925 326.926 519.131L304.551 509.642L302.686 514.107L271.61 522.48C246.128 548.716 231.211 583.325 231.211 620.725C231.211 648.077 239.291 673.754 253.586 696.082H305.794Z" fill="#D93A59"/>
<path d="M395.294 473.359C348.679 491.221 340.6 480.057 309.523 511.875L325.683 519.131L336.249 518.573C356.759 517.457 376.648 527.505 385.349 544.809L393.429 560.439C395.915 564.904 402.752 564.904 405.238 560.439L413.318 544.809C422.019 528.063 441.908 517.457 462.419 518.573L527.057 521.923C500.953 494.57 464.283 475.591 422.019 470.568C415.183 470.009 402.752 470.568 395.294 473.359Z" fill="#83D912"/>
<path d="M425.126 471.126C417.046 470.009 408.345 469.451 399.643 469.451C348.678 469.451 302.686 490.105 271.609 522.481L325.682 519.69C351.165 494.012 385.97 476.708 425.126 471.126Z" fill="#5BBF02"/>
<path d="M705.433 140.667C704.19 140.109 702.947 139.551 701.704 138.434C690.517 125.037 673.736 114.99 654.468 111.641C648.875 110.524 643.281 113.315 637.687 113.315C611.583 113.315 594.18 126.712 579.885 144.016C579.264 145.133 577.399 145.691 576.156 146.249C546.323 152.948 537.622 173.043 541.351 202.628C544.458 227.747 546.945 242.819 574.913 247.285C582.371 248.401 591.073 252.308 597.91 251.192C601.639 250.634 620.906 271.846 620.906 275.195L637.687 350.553H673.114V258.449C673.114 255.1 676.843 252.308 680.572 252.867C687.409 253.983 694.246 253.983 701.704 252.867C729.673 248.401 751.426 227.747 753.912 202.628C757.02 172.485 735.267 146.808 705.433 140.667Z" fill="#83D912"/>
<path d="M629.608 252.309C622.772 253.425 615.935 253.425 608.477 252.309C580.508 247.843 558.755 227.19 556.268 202.07C553.161 172.485 574.293 146.808 604.747 140.11C605.99 139.551 607.234 138.993 608.477 137.877C619.664 124.48 636.445 114.432 655.712 111.083C650.119 109.966 644.525 109.408 638.31 109.408C612.206 109.408 589.209 120.572 574.293 137.877C573.671 138.993 571.807 139.551 570.564 140.11C540.73 146.808 518.977 172.485 522.085 202.07C525.192 227.19 546.946 247.843 574.293 252.309C581.751 253.425 588.588 253.425 595.425 252.309C599.154 251.751 602.883 254.542 602.883 257.891V349.995H637.067V258.449C637.067 254.542 633.338 251.751 629.608 252.309Z" fill="#5BBF02"/>
<path d="M681.817 689.942C682.439 693.291 683.06 696.641 683.682 699.99H1039.19C1039.82 696.641 1041.06 693.291 1041.06 689.942C1089.54 685.476 1126.83 648.635 1126.83 603.978C1126.83 556.531 1083.94 517.456 1030.49 517.456C1013.71 517.456 998.173 521.364 984.5 528.062C984.5 528.062 984.5 528.062 984.5 527.504C984.5 473.916 942.236 429.26 885.677 419.212C877.598 417.538 869.518 421.445 861.438 421.445C793.692 421.445 747.699 471.125 747.699 531.97L738.376 527.504C724.702 520.806 709.164 516.898 692.383 516.898C639.554 516.898 596.047 555.414 596.047 603.42C596.047 648.635 633.338 684.918 681.817 689.942Z" fill="#83D912"/>
<path d="M732.782 689.943C684.303 685.477 647.012 648.635 647.012 603.979C647.012 564.346 676.845 530.854 717.866 520.806C709.786 518.573 701.085 517.457 692.383 517.457C639.554 517.457 596.047 555.973 596.047 603.979C596.047 648.635 633.338 684.919 681.817 689.943C688.032 732.366 728.432 765.301 776.911 765.301H827.876C779.397 765.301 738.998 732.366 732.782 689.943Z" fill="#95D6A4"/>
<path d="M743.351 517.457C760.132 517.457 775.67 521.364 789.343 528.063C789.343 528.063 789.343 528.063 789.343 527.504C789.343 474.475 830.986 429.818 886.923 419.212C878.843 417.538 870.142 416.979 861.44 416.979C797.423 416.979 744.594 461.078 739 517.457C740.243 517.457 742.108 517.457 743.351 517.457Z" fill="#5BBF02"/>
<path d="M603.501 696.083H717.24L741.48 592.257L696.108 574.952L747.695 563.23L760.747 505.735L738.994 491.221L767.584 477.266L775.042 445.448C776.907 437.075 778.15 428.144 778.15 419.213C778.15 414.189 748.938 407.49 748.317 403.025C747.695 398.559 775.664 395.768 774.421 391.302C773.178 385.162 770.691 379.58 768.205 373.998L755.153 344.413C746.452 324.876 725.942 312.037 702.324 312.037H610.338C586.72 312.037 565.588 325.992 557.508 345.529L544.456 375.114C534.512 398.001 535.755 422.004 541.349 446.007L603.501 696.083Z" fill="#FBC840"/>
<path d="M507.792 477.266L544.462 491.221L514.008 505.734L527.06 563.229L560.622 577.743L533.897 592.256L558.136 696.083H609.101L551.299 445.448C545.705 421.445 548.192 396.326 558.136 373.439L571.188 343.854C579.889 324.317 600.4 311.479 624.018 311.479H573.053C549.435 311.479 528.924 324.317 520.223 343.854L507.171 373.439C504.685 379.021 502.82 384.604 500.956 390.744C499.713 395.209 525.195 400.233 524.574 405.257C523.952 410.281 497.227 414.747 497.227 419.212C497.227 428.144 498.47 436.517 500.334 445.448L507.792 477.266Z" fill="#F9B50B"/>
<path d="M1185.87 277.986C1190.22 276.87 1190.22 271.846 1186.49 270.73H1185.87C1162.87 264.031 1145.47 247.843 1138.01 227.748V227.19C1136.77 223.84 1131.18 223.84 1129.93 227.19V227.748C1122.47 248.401 1104.45 264.031 1082.07 270.73H1081.45C1077.72 271.846 1077.72 276.87 1081.45 277.986H1082.07C1105.07 284.685 1122.47 300.873 1129.93 320.968V321.526C1131.18 324.876 1136.77 324.876 1138.01 321.526V320.968C1145.47 300.873 1163.49 284.685 1185.87 277.986Z" fill="#F79D0D"/>
<path d="M1158.52 1060.03H277.203L240.533 1053.33C229.345 1053.33 226.859 1051.66 226.859 1041.61L243.641 772.557L302.685 730.691H901.835L1179.04 764.742V1041.05C1179.04 1051.66 1170.33 1060.03 1158.52 1060.03Z" fill="#F0C6A4"/>
<path d="M261.041 1041.05V731.25H206.969V1041.05C206.969 1051.66 216.292 1060.03 228.101 1060.03H282.173C270.364 1060.03 261.041 1051.66 261.041 1041.05Z" fill="#EFB68B"/>
<path d="M1201.41 765.3H240.534C229.347 765.3 190.812 759.718 190.812 749.67L202.621 696.083C202.621 686.035 230.59 665.939 241.778 665.939H1201.41C1212.6 665.939 1221.92 674.313 1221.92 684.36V746.879C1221.92 756.927 1212.6 765.3 1201.41 765.3Z" fill="#AD6643"/>
<path d="M228.103 746.321V684.918C228.103 674.313 237.426 665.939 249.235 665.939H185.218C173.409 665.939 164.086 674.313 164.086 684.918V746.321C164.086 756.927 173.409 765.3 185.218 765.3H249.856C238.047 765.3 228.103 756.927 228.103 746.321Z" fill="#AA5631"/>
<path d="M757.641 922.714H627.742C602.881 922.714 582.992 904.852 582.992 882.523V880.29C582.992 857.962 602.881 840.1 627.742 840.1H757.641C782.502 840.1 802.39 857.962 802.39 880.29V882.523C802.39 904.852 782.502 922.714 757.641 922.714Z" fill="#E0B999"/>
<path d="M392.182 208.211C396.532 207.095 396.532 202.071 392.803 200.954H392.182C369.185 194.256 351.783 178.068 344.324 157.972V157.414C343.081 154.065 337.488 154.065 336.245 157.414V157.972C328.786 178.626 310.762 194.256 288.387 200.954H287.766C284.036 202.071 284.036 207.095 287.766 208.211H288.387C311.384 214.909 328.786 231.097 336.245 251.193V251.751C337.488 255.1 343.081 255.1 344.324 251.751V251.193C351.783 231.097 369.185 214.909 392.182 208.211Z" fill="#F79D0D"/>
<path d="M1017.44 187.558H1018.06C1023.66 185.883 1023.66 178.626 1018.06 176.952H1017.44C984.5 167.462 959.018 144.017 947.83 114.433V113.874C945.966 108.85 937.886 108.85 936.021 113.874V114.433C925.455 144.017 899.351 166.904 866.411 176.952H865.789C860.195 178.626 860.195 185.883 865.789 187.558H866.411C899.351 197.047 924.834 220.492 936.021 250.077V250.635C937.886 255.659 945.966 255.659 947.83 250.635V250.077C959.018 220.492 985.122 197.047 1017.44 187.558Z" fill="#F79D0D"/>
<path d="M893.759 532.528C885.058 532.528 877.6 525.83 877.6 518.015C877.6 512.991 873.249 508.525 867.034 508.525C861.44 508.525 856.468 512.433 856.468 518.015C856.468 525.83 849.009 532.528 840.308 532.528C831.607 532.528 824.148 525.83 824.148 518.015C824.148 496.803 843.416 480.057 866.412 480.057C890.03 480.057 908.676 497.361 908.676 518.015C909.297 526.388 902.461 532.528 893.759 532.528Z" fill="#5BBF02"/>
<path d="M1038.57 622.958C1029.87 622.958 1022.41 616.259 1022.41 608.444C1022.41 603.421 1018.06 598.955 1011.85 598.955C1005.63 598.955 1001.28 602.862 1001.28 608.444C1001.28 616.259 993.822 622.958 985.121 622.958C976.419 622.958 968.961 616.259 968.961 608.444C968.961 587.233 988.228 570.486 1011.22 570.486C1034.22 570.486 1053.49 587.791 1053.49 608.444C1054.73 616.817 1047.27 622.958 1038.57 622.958Z" fill="#5BBF02"/>
<path d="M855.22 622.958C846.519 622.958 839.06 616.259 839.06 608.444C839.06 603.421 834.71 598.955 828.495 598.955C822.901 598.955 817.929 602.862 817.929 608.444C817.929 616.259 810.47 622.958 801.769 622.958C793.068 622.958 785.609 616.259 785.609 608.444C785.609 587.233 804.877 570.486 827.873 570.486C851.491 570.486 870.137 587.791 870.137 608.444C870.758 616.817 863.922 622.958 855.22 622.958Z" fill="#5BBF02"/>
<path d="M587.965 390.744H552.538C552.538 390.744 503.438 400.234 503.438 410.281C504.059 410.281 548.809 419.771 548.809 419.771H587.965C596.666 419.771 604.124 413.072 604.124 405.257C604.124 396.884 596.666 390.744 587.965 390.744Z" fill="#F49751"/>
<path d="M587.961 476.708H558.75L527.674 484.523C526.431 484.523 525.809 486.197 525.188 486.197L547.562 495.687L565.587 505.177H587.961C596.663 505.177 604.121 498.478 604.121 490.663C604.121 483.406 596.663 476.708 587.961 476.708Z" fill="#F49751"/>
<path d="M604.126 577.743C604.126 569.928 596.667 563.229 587.966 563.229H578.643L559.997 574.394L546.945 585L584.858 591.698H587.344C596.667 591.698 604.126 585.558 604.126 577.743Z" fill="#F49751"/>
<path d="M552.538 390.744H501.573C499.087 400.234 497.844 409.723 497.844 419.213C498.465 419.213 499.087 419.213 499.708 419.213H548.809C548.809 409.723 550.052 400.234 552.538 390.744Z" fill="#F27144"/>
<path d="M510.897 476.708C509.654 476.708 508.411 476.708 507.789 477.266L514.626 505.735H565.591L558.754 477.266H510.897V476.708Z" fill="#F27144"/>
<path d="M527.68 563.229L534.516 591.698H585.481L578.645 563.229H527.68Z" fill="#F27144"/>
<path d="M687.41 390.744C678.708 390.744 671.25 397.443 671.25 405.257C671.25 413.072 678.708 419.771 687.41 419.771H775.666C776.288 419.771 776.909 419.771 777.531 419.771C777.531 410.281 776.288 400.792 773.802 391.302L687.41 390.744Z" fill="#F49751"/>
<path d="M767.586 477.266C766.343 477.266 765.722 476.708 764.479 476.708H687.41C678.708 476.708 671.25 483.406 671.25 491.221C671.25 499.036 678.708 505.735 687.41 505.735H761.371L767.586 477.266Z" fill="#F49751"/>
<path d="M747.698 563.229H687.41C678.708 563.229 671.25 569.928 671.25 577.743C671.25 585.558 678.708 592.256 687.41 592.256H741.482L747.698 563.229Z" fill="#F49751"/>
</svg>
