<svg width="1386" height="1170" viewBox="0 0 1386 1170" fill="none" xmlns="http://www.w3.org/2000/svg">
<path d="M1083.32 916.017C1062.19 936.112 1042.3 948.393 1026.76 958.998C842.167 1077.9 624.011 1043.29 578.019 1034.91C509.651 1022.63 377.266 998.073 281.551 897.038C136.736 744.089 159.111 503.502 271.607 344.414C292.117 315.387 400.884 154.065 620.904 127.83C754.532 112.2 909.913 144.018 1022.41 228.307C1259.21 406.374 1241.81 765.859 1083.32 916.017Z" fill="#0C8A43"/>
<path d="M377.891 343.855C377.891 314.828 404.616 290.825 436.935 290.825H938.506C966.474 290.825 988.849 310.362 990.714 334.923L1028.01 988.583C1029.25 1008.12 1011.85 1024.31 990.714 1024.87L415.804 1034.36C395.293 1034.91 378.512 1019.84 378.512 1001.42V343.855H377.891Z" fill="#01582B"/>
<path d="M499.092 1023.19L434.453 1022.63C412.7 1022.63 395.297 1006.44 395.297 986.908V899.827C395.297 899.269 395.918 898.711 396.54 898.711C397.161 898.711 397.783 899.269 397.783 899.827V986.908C397.783 1004.77 413.943 1019.84 433.831 1019.84L498.47 1020.4C499.091 1020.4 499.713 1020.96 499.713 1021.52C500.335 1022.63 499.713 1023.19 499.092 1023.19Z" fill="#91B3FA"/>
<path d="M396.54 874.15C395.918 874.15 395.297 873.592 395.297 873.033V859.078C395.297 858.52 395.918 857.962 396.54 857.962C397.161 857.962 397.783 858.52 397.783 859.078V873.033C398.405 873.592 397.783 874.15 396.54 874.15Z" fill="url(#paint0_linear_3_120)"/>
<path d="M418.914 300.872C418.914 291.383 428.237 284.126 438.181 285.242C506.549 293.616 742.107 319.293 937.266 305.896C945.967 305.338 954.047 311.478 954.047 319.293L992.581 975.743C993.203 984.675 985.745 992.489 975.179 993.048C893.137 997.513 555.649 1014.26 435.695 1003.1C428.237 1002.54 422.643 996.955 422.643 990.257L418.914 300.872Z" fill="#DDB997"/>
<path d="M426.992 317.618C426.992 308.687 435.694 301.431 445.638 303.105C511.52 310.92 738.376 336.039 926.077 323.201C934.778 322.642 942.236 328.224 942.236 336.039L979.528 967.37C980.149 976.302 972.691 983.558 962.746 984.117C883.813 988.582 559.377 1004.77 443.152 993.606C436.315 993.048 430.721 987.466 430.721 981.326L426.992 317.618Z" fill="#F8E0C4"/>
<path d="M487.906 366.183L494.743 501.827C494.743 506.292 499.094 509.642 504.066 510.2C532.034 510.758 619.048 512.991 668.148 510.758C673.742 510.758 678.093 506.292 678.093 501.269C679.336 476.149 681.2 401.908 674.364 371.207C673.121 366.183 668.77 362.833 663.176 362.275L497.851 357.251C492.878 356.693 487.906 361.159 487.906 366.183Z" fill="#967A5F"/>
<g opacity="0.6">
<path d="M901.221 377.905C904.329 377.905 906.815 375.672 906.815 373.439C906.815 371.206 904.329 368.974 901.221 368.974L719.736 366.183C716.628 366.183 714.763 368.415 716.007 370.648L717.25 373.439C718.493 376.23 721.6 378.463 724.708 378.463H901.221V377.905Z" fill="#967A5F"/>
</g>
<g opacity="0.6">
<path d="M719.111 391.302C716.003 391.302 714.139 393.535 715.382 395.767L716.625 398.558C717.868 401.349 720.975 403.582 724.083 403.582H901.217C904.325 403.582 906.811 401.349 906.811 399.117C906.811 396.884 904.325 394.651 901.217 394.651L719.111 391.302Z" fill="#967A5F"/>
</g>
<g opacity="0.6">
<path d="M719.111 416.979C716.003 416.979 714.139 419.212 715.382 421.445L716.625 424.236C717.868 427.027 720.975 429.26 724.083 429.26H901.217C904.325 429.26 906.811 427.027 906.811 424.794C906.811 422.562 904.325 420.329 901.217 420.329L719.111 416.979Z" fill="#967A5F"/>
</g>
<g opacity="0.6">
<path d="M918.619 552.623C921.726 552.623 924.212 550.39 923.591 548.157C923.591 545.924 920.483 543.691 917.376 543.691L492.874 540.9C489.767 540.9 489.145 542.575 491.01 544.808L494.739 549.273C496.603 551.506 500.954 553.181 504.062 553.181H918.619V552.623Z" fill="#967A5F"/>
</g>
<g opacity="0.6">
<path d="M493.499 565.462C490.392 565.462 489.77 567.137 491.635 569.369L495.364 573.835C497.228 576.068 501.579 577.742 504.687 577.742H919.244C922.351 577.742 924.837 575.51 924.216 573.277C924.216 571.044 921.108 568.811 918.001 568.811L493.499 565.462Z" fill="#967A5F"/>
</g>
<path d="M491.629 607.886C501.574 607.328 520.841 606.77 531.407 606.77C535.758 606.77 539.487 609.561 540.73 613.468C542.594 621.283 545.702 634.122 545.08 648.077C545.08 651.984 541.351 655.333 536.379 655.333L497.845 654.775C492.872 654.775 489.143 651.426 488.522 646.96L485.414 614.026C485.414 610.677 487.9 607.886 491.629 607.886Z" fill="url(#paint1_linear_3_120)"/>
<g opacity="0.6">
<path d="M563.105 621.282C559.997 621.282 558.133 623.515 558.133 626.306L559.376 632.446C559.997 635.237 562.483 637.47 565.591 637.47H660.063C663.17 637.47 665.657 635.237 665.657 632.446V630.772C665.657 627.981 663.17 625.748 660.063 625.748L563.105 621.282Z" fill="#967A5F"/>
</g>
<path d="M702.95 607.886C712.894 607.328 732.161 606.77 742.727 606.77C747.078 606.77 750.807 609.561 752.05 613.468C753.915 621.283 757.022 634.122 756.401 648.077C756.401 651.984 752.672 655.333 747.699 655.333L709.165 654.775C704.193 654.775 700.464 651.426 699.842 646.96L696.734 614.026C696.734 610.677 699.22 607.886 702.95 607.886Z" fill="#967A5F"/>
<g opacity="0.6">
<path d="M774.425 621.282C771.318 621.282 769.453 623.515 769.453 626.306L770.696 632.446C771.318 635.237 773.804 637.47 776.911 637.47H871.383C874.491 637.47 876.977 635.237 876.977 632.446V630.772C876.977 627.981 874.491 625.748 871.383 625.748L774.425 621.282Z" fill="#967A5F"/>
</g>
<g opacity="0.6">
<path d="M479.822 719.527C481.065 722.876 486.038 725.667 491.01 725.667L915.511 722.876C920.483 722.876 924.212 720.085 924.212 716.736C924.212 713.387 920.483 710.596 915.511 710.596L491.01 709.479C483.551 709.479 477.958 714.503 479.822 719.527Z" fill="#967A5F"/>
</g>
<g opacity="0.6">
<path d="M479.822 788.745C481.065 792.094 486.038 794.885 491.01 794.885L915.511 792.094C920.483 792.094 924.212 789.303 924.212 785.954C924.212 782.605 920.483 779.814 915.511 779.814L491.01 778.697C483.551 778.697 477.958 783.721 479.822 788.745Z" fill="#967A5F"/>
</g>
<g opacity="0.6">
<path d="M479.822 857.404C481.065 860.753 486.038 863.544 491.01 863.544L915.511 860.753C920.483 860.753 924.212 857.962 924.212 854.613C924.212 851.264 920.483 848.473 915.511 848.473L491.01 847.356C483.551 847.356 477.958 852.38 479.822 857.404Z" fill="#967A5F"/>
</g>
<g opacity="0.6">
<path d="M479.822 926.622C481.065 929.971 486.038 932.762 491.01 932.762L915.511 929.971C920.483 929.971 924.212 927.18 924.212 923.831C924.212 920.482 920.483 917.691 915.511 917.691L491.01 916.574C483.551 916.574 477.958 921.04 479.822 926.622Z" fill="#967A5F"/>
</g>
<path d="M718.488 202.07C700.464 190.906 684.304 190.906 673.739 193.697C663.794 196.488 656.957 205.419 658.2 214.351L663.173 261.24L720.353 265.706C719.731 266.264 754.537 224.398 718.488 202.07ZM693.627 240.028C685.548 240.028 679.332 234.446 679.332 227.189C679.332 219.933 685.548 214.351 693.627 214.351C701.707 214.351 707.922 219.933 707.922 227.189C707.922 233.888 701.707 240.028 693.627 240.028Z" fill="#01582B"/>
<path d="M668.764 241.703C668.143 241.703 667.521 241.145 667.521 240.586L666.9 233.33C666.9 232.771 667.521 232.213 668.143 232.213C668.764 232.213 669.386 232.771 669.386 233.33L670.007 240.586C670.007 241.145 669.386 241.703 668.764 241.703ZM666.9 227.189C666.278 227.189 665.656 226.631 665.656 226.073L665.035 220.491C664.413 211.56 670.629 203.187 679.952 200.396C686.788 198.721 693.625 198.163 700.462 199.837C701.083 199.837 701.705 200.395 701.705 201.512C701.705 202.07 701.083 202.628 699.84 202.628C693.004 201.512 686.788 201.512 680.573 203.187C672.493 205.419 666.9 212.676 667.521 220.491L668.143 226.073C668.764 226.631 668.143 227.189 666.9 227.189Z" fill="#91B3FA"/>
<path d="M584.859 291.941V268.497C584.859 260.124 592.318 253.983 601.641 253.983L782.504 259.565C790.584 259.565 796.799 265.706 797.421 272.962L798.664 295.849L584.859 291.941Z" fill="#01582B"/>
<path d="M652.604 262.914H644.524C643.903 262.914 643.281 262.356 643.281 261.798C643.281 261.24 643.903 260.682 644.524 260.682H652.604C653.226 260.682 653.847 261.24 653.847 261.798C653.847 262.356 653.226 262.914 652.604 262.914Z" fill="#91B3FA"/>
<path d="M594.806 284.685C594.184 284.685 593.562 284.127 593.562 283.569V273.521C593.562 266.264 600.399 260.124 608.479 260.124H637.069C637.691 260.124 638.312 260.682 638.312 261.24C638.312 261.799 637.691 262.357 637.069 262.357H608.479C601.642 262.357 596.049 267.381 596.049 273.521V283.01C596.049 284.127 595.427 284.685 594.806 284.685Z" fill="#91B3FA"/>
<path d="M511.516 298.082C512.138 289.709 519.596 283.568 528.297 283.568H844.653C855.841 283.568 865.785 290.825 867.65 300.873V301.989C869.514 313.153 860.191 323.201 847.761 323.201H523.947C516.488 323.201 510.273 317.619 510.894 310.92L511.516 298.082Z" fill="#967A5F"/>
<path d="M648.87 941.693H193.914V1037.15H648.87V941.693Z" fill="#3D2008"/>
<path d="M624.633 1031.01H218.778C199.51 1031.01 184.594 1017.05 184.594 1000.3V994.723H656.952V1002.54C656.952 1018.17 642.657 1031.01 624.633 1031.01Z" fill="#69451D"/>
<path d="M622.144 989.699H218.153C198.885 989.699 183.969 975.744 183.969 958.998V953.416H656.327V958.998C656.949 975.744 641.411 989.699 622.144 989.699Z" fill="#69451D"/>
<path d="M656.952 952.857H184.594V950.625C184.594 944.484 190.187 938.902 197.646 938.902H644.522C651.359 938.902 657.574 943.926 657.574 950.625V952.857H656.952Z" fill="#3D2008"/>
<path d="M1084.62 1025.75C1093.32 1009.67 1087.87 991.17 1072.44 984.429C1057 977.688 1037.43 985.259 1028.72 1001.34C1020.02 1017.42 1025.47 1035.92 1040.91 1042.66C1056.34 1049.4 1075.91 1041.83 1084.62 1025.75Z" fill="#51330D"/>
<path d="M1043.54 998.63L1035.46 1013.14C1032.97 1018.17 1026.13 1020.4 1020.54 1017.61L1016.81 1015.93C1011.22 1013.7 1008.73 1007.56 1011.84 1002.54L1019.92 988.024C1022.4 983 1029.24 980.768 1034.83 983.559L1038.56 985.233C1044.16 988.024 1046.02 993.606 1043.54 998.63Z" fill="#69451D"/>
<path d="M1027.37 977.419C1024.26 990.258 1018.05 1001.98 1008.11 1012.03C1003.13 1017.61 994.432 1019.84 985.73 1018.73C905.554 1004.21 737.12 910.992 573.659 828.936C563.094 823.354 555.635 817.214 560.607 807.724L571.795 787.071C576.767 777.581 589.198 783.163 600.385 787.071C773.169 850.706 956.519 906.527 1019.91 957.882C1026.13 963.464 1028.62 970.72 1027.37 977.419Z" fill="#51330D"/>
<path d="M598.526 766.417L559.991 837.309C559.37 838.426 558.127 838.984 556.883 838.425L536.995 829.494C535.752 828.936 535.13 827.82 535.752 826.703L574.286 755.811C574.908 754.695 576.151 754.136 577.394 754.695L597.283 763.626C598.526 764.184 598.526 765.301 598.526 766.417Z" fill="#3D2008"/>
<path d="M428.229 696.083L389.694 766.975C389.073 768.091 387.83 768.65 386.587 768.092L366.698 759.16C365.455 758.602 364.833 757.486 365.455 756.369L403.989 685.477C404.611 684.361 405.854 683.802 407.097 684.361L426.986 693.292C428.229 693.85 428.85 694.966 428.229 696.083Z" fill="#51330D"/>
<path d="M446.627 623.945L325.68 847.333L494.479 921.052L615.426 697.665L446.627 623.945Z" fill="#69451D"/>
<path d="M331.9 835.617L316.68 863.729L485.479 937.448L500.699 909.336L331.9 835.617Z" fill="#3D2008"/>
<path d="M492.243 924.389L484.784 938.344C482.298 942.81 477.326 944.485 471.732 943.368C418.903 929.413 368.559 907.643 319.459 876.942C315.108 874.151 313.865 869.127 315.73 864.661L323.188 850.706L492.243 924.389Z" fill="#69451D"/>
<path d="M509.026 903.177L502.811 914.9C502.189 916.016 500.946 916.574 499.703 916.016L323.19 838.984C321.947 838.425 321.325 837.309 321.947 836.193L328.162 824.47C328.784 823.354 330.027 822.796 331.27 823.354L507.783 900.386C509.026 900.944 509.647 902.061 509.026 903.177Z" fill="#51330D"/>
<path d="M508.406 905.409L504.055 913.224C503.434 914.341 502.191 914.341 500.948 914.341L323.813 837.308C322.57 836.75 322.57 835.634 322.57 834.517L326.921 826.702C327.542 825.586 328.786 825.586 330.029 825.586L507.163 902.618C508.406 903.177 508.406 904.293 508.406 905.409Z" fill="#69451D"/>
<path d="M616.123 695.655L631.344 667.543L462.545 593.824L447.324 621.935L616.123 695.655Z" fill="#3D2008"/>
<path d="M624.628 679.895L632.087 665.939C634.573 661.474 632.708 656.45 628.358 653.659C583.608 625.19 533.264 602.862 476.084 587.232C471.112 586.116 465.518 587.791 463.654 592.256L456.195 606.211L624.628 679.895Z" fill="#69451D"/>
<path d="M616.545 705.014L622.76 693.291C623.382 692.175 622.76 691.059 621.517 690.5L445.004 613.468C443.761 612.91 442.518 613.468 441.897 614.584L435.681 626.307C435.06 627.423 435.681 628.54 436.924 629.098L613.437 706.13C614.68 706.688 615.923 706.13 616.545 705.014Z" fill="#51330D"/>
<path d="M617.167 703.34L621.517 695.525C622.139 694.408 621.517 693.292 620.274 692.734L443.14 615.701C441.897 615.143 440.654 615.701 440.032 616.818L435.681 624.633C435.06 625.749 435.681 626.866 436.924 627.424L614.059 704.456C615.924 704.456 617.167 704.456 617.167 703.34Z" fill="#69451D"/>
<defs>
<linearGradient id="paint0_linear_3_120" x1="311.173" y1="816.724" x2="800.497" y2="1162.85" gradientUnits="userSpaceOnUse">
<stop stop-color="#A737D5"/>
<stop offset="1" stop-color="#EF497A"/>
</linearGradient>
<linearGradient id="paint1_linear_3_120" x1="431.859" y1="570.794" x2="873.625" y2="963.981" gradientUnits="userSpaceOnUse">
<stop stop-color="#A737D5"/>
<stop offset="1" stop-color="#EF497A"/>
</linearGradient>
</defs>
</svg>
