<svg width="1386" height="1170" viewBox="0 0 1386 1170" fill="none" xmlns="http://www.w3.org/2000/svg">
<path d="M869.518 109.967L849.008 209.327L869.518 308.688C930.427 308.688 980.149 264.032 980.149 209.327C980.149 154.623 930.427 109.967 869.518 109.967Z" fill="#FFCDBE"/>
<path d="M1045.41 466.66C1045.41 379.022 966.473 308.13 868.893 308.13L848.383 476.15L868.893 945.043H1045.41V466.66Z" fill="#522866"/>
<path d="M693.003 466.66L672.492 945.043H869.515V308.13C771.936 308.13 693.003 379.022 693.003 466.66Z" fill="#604080"/>
<path d="M758.883 209.327C758.883 264.032 808.605 308.688 869.514 308.688V109.967C808.605 109.967 758.883 154.623 758.883 209.327Z" fill="#FFDECF"/>
<path d="M516.487 109.967L495.977 209.327L516.487 308.688C577.396 308.688 627.118 264.032 627.118 209.327C627.118 154.623 577.396 109.967 516.487 109.967Z" fill="#FFCDBE"/>
<path d="M693 466.66C693 379.022 614.066 308.13 516.487 308.13L495.977 476.15L516.487 945.043H693V466.66Z" fill="#2995CC"/>
<path d="M340.602 466.66V945.043H517.115V308.13C419.535 308.13 340.602 379.022 340.602 466.66Z" fill="#2EC7E6"/>
<path d="M406.484 209.327C406.484 264.032 456.206 308.688 517.116 308.688V109.967C455.585 109.967 406.484 154.623 406.484 209.327Z" fill="#FFDECF"/>
<path d="M340.596 466.66L320.086 566.021L340.596 665.382C401.506 665.382 451.228 620.725 451.228 566.021C451.228 511.317 401.506 466.66 340.596 466.66Z" fill="#FFCDBE"/>
<path d="M516.492 823.354C516.492 735.715 437.558 664.823 339.979 664.823L319.469 832.843L339.979 1000.86H516.492L537.002 910.434L516.492 882.524V823.354Z" fill="#FFDD33"/>
<path d="M164.086 823.354V1000.86H340.599V664.823C243.02 665.381 164.086 736.274 164.086 823.354Z" fill="#FFEE99"/>
<path d="M229.969 566.021C229.969 620.725 279.691 665.382 340.6 665.382V466.66C279.069 466.66 229.969 511.317 229.969 566.021Z" fill="#FFDECF"/>
<path d="M1045.41 466.66L1024.9 566.021L1045.41 665.382C1106.32 665.382 1156.04 620.725 1156.04 566.021C1156.04 511.317 1106.94 466.66 1045.41 466.66Z" fill="#FFCDBE"/>
<path d="M1221.92 823.354C1221.92 735.715 1142.99 664.823 1045.41 664.823L1024.9 832.843L1045.41 1000.86H1221.92V823.354Z" fill="#24B3B3"/>
<path d="M869.518 823.354V882.524L849.008 910.434L869.518 1000.86H1046.03V665.382C948.452 665.382 869.518 736.274 869.518 823.354Z" fill="#2EE6A8"/>
<path d="M935.398 566.021C935.398 620.725 985.12 665.382 1046.03 665.382V466.66C984.499 466.66 935.398 511.317 935.398 566.021Z" fill="#FFDECF"/>
<path d="M693.003 525.83L672.492 625.191L693.003 724.551C753.912 724.551 803.634 679.895 803.634 625.191C803.634 570.487 753.912 525.83 693.003 525.83Z" fill="#FFCDBE"/>
<path d="M869.515 882.524C869.515 794.885 790.582 723.993 693.003 723.993L672.492 892.013L693.003 1060.03H869.515V882.524Z" fill="#FF3377"/>
<path d="M516.492 882.524V1060.03H693.005V723.993C595.426 724.551 516.492 795.444 516.492 882.524Z" fill="#FF6699"/>
<path d="M582.375 625.191C582.375 679.895 632.097 724.551 693.006 724.551V525.83C632.097 525.83 582.375 570.487 582.375 625.191Z" fill="#FFDECF"/>
</svg>
