<svg width="1386" height="1170" viewBox="0 0 1386 1170" fill="none" xmlns="http://www.w3.org/2000/svg">
<path d="M218.773 553.74C218.773 318.736 430.713 127.829 692.997 127.829C955.28 127.829 1167.22 318.177 1167.22 553.74V821.679H218.773V553.74Z" fill="#F9B50B"/>
<path d="M956.52 774.231L798.031 837.309V1042.17H1202.02V837.309L1061.56 774.231H956.52Z" fill="#E1E3E6"/>
<path d="M956.523 695.524V806.049L1009.35 837.309L1062.18 806.049V695.524H956.523Z" fill="#E0B999"/>
<path d="M903.695 521.923V648.077C903.695 648.077 938.501 742.414 1008.73 742.414C1078.97 742.414 1113.77 648.077 1113.77 648.077V521.923H903.695Z" fill="#F0C6A4"/>
<path d="M271.602 679.337H482.298V805.492H271.602V679.337Z" fill="#AD6643"/>
<path d="M289.006 774.231L183.969 837.309V1042.17H587.96V837.309L500.325 774.231H289.006Z" fill="#E1E3E6"/>
<path d="M324.43 711.154V805.491L377.259 836.751L430.089 805.491V711.154H324.43Z" fill="#E0B999"/>
<path d="M482.298 600.63C482.298 653.101 435.063 742.414 377.261 742.414C319.459 742.414 271.602 653.101 271.602 600.63C271.602 548.158 318.837 506.293 376.639 506.293C434.441 506.293 482.298 548.717 482.298 600.63Z" fill="#F0C6A4"/>
<path d="M377.266 506.293L289.631 632.448L324.436 758.602V869.127C266.013 869.127 219.398 826.703 219.398 774.79V553.741C219.398 553.741 221.885 427.586 377.266 427.586V506.293Z" fill="#AD6643"/>
<path d="M377.266 506.293L464.901 632.448L430.095 758.602V869.127C488.519 869.127 535.133 826.703 535.133 774.79V553.741C535.133 553.741 532.647 427.586 377.266 427.586V506.293Z" fill="#AD6643"/>
<path d="M341.84 631.889C351.451 631.889 359.243 624.892 359.243 616.26C359.243 607.628 351.451 600.63 341.84 600.63C332.229 600.63 324.438 607.628 324.438 616.26C324.438 624.892 332.229 631.889 341.84 631.889Z" fill="#AD6643"/>
<path d="M412.075 631.889C421.686 631.889 429.477 624.892 429.477 616.26C429.477 607.628 421.686 600.63 412.075 600.63C402.463 600.63 394.672 607.628 394.672 616.26C394.672 624.892 402.463 631.889 412.075 631.889Z" fill="#AD6643"/>
<path d="M341.836 663.707C341.836 663.707 343.079 694.967 376.641 694.967C411.447 694.967 411.447 663.707 411.447 663.707H341.836Z" fill="#AD6643"/>
<path d="M973.926 631.889C983.537 631.889 991.329 624.892 991.329 616.26C991.329 607.628 983.537 600.63 973.926 600.63C964.315 600.63 956.523 607.628 956.523 616.26C956.523 624.892 964.315 631.889 973.926 631.889Z" fill="#AD6643"/>
<path d="M1044.16 631.889C1053.77 631.889 1061.56 624.892 1061.56 616.26C1061.56 607.628 1053.77 600.63 1044.16 600.63C1034.55 600.63 1026.76 607.628 1026.76 616.26C1026.76 624.892 1034.55 631.889 1044.16 631.889Z" fill="#AD6643"/>
<path d="M324.43 1042.17L394.662 805.492L605.359 742.414V616.26H780.629V742.414L991.326 805.492L1061.56 1042.17H324.43Z" fill="#E9EEF2"/>
<path d="M640.17 821.679L535.133 727.342L569.938 679.895H815.44L850.246 727.342L745.83 821.679H640.17Z" fill="#E1E3E6"/>
<path d="M605.359 711.155L692.994 758.602L780.629 711.155V600.63H605.359V711.155Z" fill="#E0B999"/>
<path d="M850.867 474.475C850.867 552.624 780.014 663.707 693 663.707C605.987 663.707 535.133 553.182 535.133 474.475C535.133 396.326 605.987 332.69 693 332.69C780.014 332.69 850.867 396.326 850.867 474.475Z" fill="#F0C6A4"/>
<path d="M658.196 852.938L623.391 963.463V1042.17H763.855V963.463L729.05 852.938H658.196Z" fill="#2D85CC"/>
<path d="M886.288 380.138L850.861 474.475L816.056 395.768H569.932L535.127 474.475L500.321 380.138V364.508C499.7 329.341 531.398 301.431 569.932 301.431H745.824C793.681 301.431 852.726 284.685 886.288 253.983V380.138Z" fill="#AD6643"/>
<path d="M464.898 1042.17V900.387C464.898 891.455 472.978 884.757 482.301 884.757C492.245 884.757 499.704 892.014 499.704 900.387V1042.17H464.898Z" fill="#E1E3E6"/>
<path d="M886.289 1042.17V900.387C886.289 891.455 894.369 884.757 903.692 884.757C913.636 884.757 921.094 892.014 921.094 900.387V1042.17H886.289Z" fill="#E1E3E6"/>
<path d="M640.168 490.105C649.78 490.105 657.571 483.108 657.571 474.475C657.571 465.843 649.78 458.846 640.168 458.846C630.557 458.846 622.766 465.843 622.766 474.475C622.766 483.108 630.557 490.105 640.168 490.105Z" fill="#AD6643"/>
<path d="M745.825 490.105C755.436 490.105 763.227 483.108 763.227 474.475C763.227 465.843 755.436 458.846 745.825 458.846C736.213 458.846 728.422 465.843 728.422 474.475C728.422 483.108 736.213 490.105 745.825 490.105Z" fill="#AD6643"/>
<path d="M692.994 758.602L640.164 821.679L657.567 852.938H727.799L745.202 821.679L692.994 758.602Z" fill="#266FAB"/>
<path d="M973.93 663.707C973.93 663.707 975.173 694.967 1008.74 694.967C1043.54 694.967 1043.54 663.707 1043.54 663.707H973.93Z" fill="#AD6643"/>
<path d="M693.001 595.605C670.626 595.605 648.873 589.465 630.848 578.859C622.769 573.835 620.282 564.346 625.876 557.089C631.47 549.832 642.036 547.6 650.116 552.624C676.22 568.253 709.782 568.253 735.886 552.624C743.966 547.6 755.153 549.832 760.126 557.089C765.719 564.346 763.233 573.835 755.153 578.859C737.129 589.465 715.376 595.605 693.001 595.605Z" fill="#AD6643"/>
<path d="M1149.2 537.553L1114.39 648.077L1079.59 553.741H938.501L903.696 648.077L868.891 569.37V521.923C868.891 487.314 900.588 458.845 939.123 458.845H1079.59C1108.18 458.845 1138.63 449.356 1149.82 427.586V537.553H1149.2Z" fill="#AD6643"/>
</svg>
