<svg width="1386" height="1170" viewBox="0 0 1386 1170" fill="none" xmlns="http://www.w3.org/2000/svg">
<path d="M1054.1 956.207C1155.41 870.243 1218.81 747.996 1218.81 612.91C1218.81 352.228 983.249 140.668 692.997 140.668C402.745 140.668 167.188 352.228 167.188 612.91C167.188 873.593 402.745 1085.15 692.997 1085.15C715.994 1085.15 738.369 1084.04 760.122 1081.25L1054.1 956.207Z" fill="#816AE2"/>
<path d="M995.055 803.258C990.704 788.187 988.84 771.999 990.083 756.369L998.784 683.802C1003.13 638.029 995.055 592.815 972.68 551.507C914.878 445.448 927.93 437.633 926.066 332.691C926.066 310.921 906.798 293.616 882.559 293.616C858.319 293.616 839.052 310.921 839.052 332.691C839.052 760.835 839.674 729.017 837.188 741.856V797.676C837.188 845.124 794.302 883.082 742.094 883.082C707.289 883.082 586.713 883.082 504.672 883.082C541.342 928.855 591.064 964.022 648.866 985.792C649.487 985.792 649.487 985.792 650.109 986.35C694.858 1003.1 744.58 1037.15 753.282 1079.01L753.903 1081.8C871.371 1069.52 977.652 1022.63 1058.45 952.299L995.055 803.258Z" fill="#F9BA8F"/>
<path d="M344.323 294.733L331.271 283.569C310.761 266.823 279.063 267.939 259.796 285.802C241.15 304.223 242.393 332.691 262.282 349.996L344.323 418.655V294.733Z" fill="#F9BA8F"/>
<path d="M289.008 316.503C276.577 305.897 270.983 291.383 273.469 276.87C268.497 279.103 263.525 282.452 259.796 286.36C241.15 304.78 242.393 333.249 262.282 350.553L344.323 418.654V362.276L289.008 316.503Z" fill="#FCAD6D"/>
<path d="M999.411 812.189C981.387 923.272 875.106 1008.12 747.072 1008.12C724.697 1008.12 703.565 1005.33 683.055 1000.86C717.239 1019.28 747.693 1046.64 753.909 1079.01L754.53 1081.8C871.998 1069.52 978.279 1022.63 1059.08 952.299L999.411 812.189Z" fill="#FD995B"/>
<path d="M765.098 884.757H417.044C376.023 884.757 342.461 854.614 342.461 817.772V165.787C342.461 128.946 376.023 98.8027 417.044 98.8027H765.098C806.118 98.8027 839.681 128.946 839.681 165.787V818.33C839.681 855.172 806.118 884.757 765.098 884.757Z" fill="#2A428C"/>
<path d="M417.044 98.8023C376.023 98.8023 342.461 128.945 342.461 165.787V818.33C342.461 855.172 376.023 885.315 417.044 885.315H520.839C497.842 864.103 524.568 843.449 524.568 843.449C486.655 834.518 489.762 798.793 489.762 798.793C489.762 798.793 489.762 251.751 489.762 217.7C489.762 183.65 528.297 174.718 528.297 174.718C512.759 160.763 528.297 146.808 528.297 146.808V123.363C514.002 115.549 517.109 104.384 520.217 98.2441L417.044 98.8023Z" fill="#142766"/>
<path d="M535.752 146.808H528.294C521.457 146.808 515.242 141.784 515.242 135.086C515.242 128.945 520.836 123.363 528.294 123.363H535.752C542.589 123.363 548.805 128.387 548.805 135.086C548.805 141.226 543.211 146.808 535.752 146.808Z" fill="#3C58A0"/>
<path d="M651.977 146.808H579.88C573.043 146.808 566.828 141.784 566.828 135.086C566.828 128.945 572.422 123.363 579.88 123.363H651.356C658.192 123.363 664.408 128.387 664.408 135.086C664.408 141.226 658.814 146.808 651.977 146.808Z" fill="#3C58A0"/>
<path d="M765.096 140.109H712.888C702.944 140.109 695.485 147.366 695.485 155.739C695.485 165.787 686.163 174.16 674.975 174.16H507.785C496.598 174.16 487.275 165.787 487.275 155.739C487.275 146.808 479.195 140.109 469.872 140.109H417.664C402.126 140.109 389.695 151.273 389.695 165.229V817.772C389.695 831.727 402.126 842.891 417.664 842.891H765.718C781.256 842.891 793.686 831.727 793.686 817.772C793.686 750.787 793.686 183.091 793.686 165.229C793.065 151.832 780.634 140.109 765.096 140.109Z" fill="#73C3F9"/>
<path d="M524.566 843.449C518.972 822.795 546.32 817.772 546.32 817.772C546.32 817.772 563.101 683.244 546.32 668.172C529.538 653.101 546.32 638.587 546.32 638.587C546.32 638.587 564.965 505.734 546.32 488.988C527.674 472.242 546.32 459.403 546.32 459.403V308.688C512.757 289.709 530.781 262.357 530.781 262.357V219.375C505.299 196.488 528.917 174.16 528.917 174.16H507.785C496.598 174.16 487.275 165.787 487.275 155.739C487.275 146.808 479.195 140.109 469.872 140.109H417.664C402.126 140.109 389.695 151.273 389.695 165.229V817.772C389.695 831.727 402.126 842.891 417.664 842.891L524.566 843.449Z" fill="#4FABF7"/>
<path d="M486.032 262.915H696.107C709.159 262.915 719.725 253.425 719.725 241.703C719.725 229.981 709.159 220.491 696.107 220.491H486.032C472.98 220.491 462.414 229.981 462.414 241.703C462.414 252.867 472.98 262.915 486.032 262.915Z" fill="#E9EFFF"/>
<path d="M486.032 219.933H530.16V262.914H486.032C472.98 262.914 462.414 253.425 462.414 241.703C462.414 229.422 472.98 219.933 486.032 219.933Z" fill="#9BD8F9"/>
<path d="M738.372 458.845H443.769C431.96 458.845 422.016 449.914 422.016 439.308V328.225C422.016 317.619 431.96 308.688 443.769 308.688H738.372C750.181 308.688 760.125 317.619 760.125 328.225V439.308C760.125 449.914 750.181 458.845 738.372 458.845Z" fill="#E9EFFF"/>
<path d="M738.372 638.029H443.769C431.96 638.029 422.016 629.098 422.016 618.492V507.967C422.016 497.361 431.96 488.43 443.769 488.43H738.372C750.181 488.43 760.125 497.361 760.125 507.967V619.05C760.125 629.656 750.181 638.029 738.372 638.029Z" fill="#E9EFFF"/>
<path d="M738.372 817.772H443.769C431.96 817.772 422.016 808.84 422.016 798.234V687.151C422.016 676.546 431.96 667.614 443.769 667.614H738.372C750.181 667.614 760.125 676.546 760.125 687.151V798.234C760.125 808.84 750.181 817.772 738.372 817.772Z" fill="#E9EFFF"/>
<path d="M738.372 458.845H443.769C431.96 458.845 422.016 449.914 422.016 439.308V328.225C422.016 317.619 431.96 308.688 443.769 308.688H738.372C750.181 308.688 760.125 317.619 760.125 328.225V439.308C760.125 449.914 750.181 458.845 738.372 458.845Z" fill="#E9EFFF"/>
<path d="M738.372 638.029H443.769C431.96 638.029 422.016 629.098 422.016 618.492V507.967C422.016 497.361 431.96 488.43 443.769 488.43H738.372C750.181 488.43 760.125 497.361 760.125 507.967V619.05C760.125 629.656 750.181 638.029 738.372 638.029Z" fill="#E9EFFF"/>
<path d="M738.372 817.772H443.769C431.96 817.772 422.016 808.84 422.016 798.234V687.151C422.016 676.546 431.96 667.614 443.769 667.614H738.372C750.181 667.614 760.125 676.546 760.125 687.151V798.234C760.125 808.84 750.181 817.772 738.372 817.772Z" fill="#E9EFFF"/>
<path d="M524.567 439.308V328.225C524.567 317.619 534.512 308.688 546.321 308.688H443.769C431.96 308.688 422.016 317.619 422.016 328.225V439.308C422.016 449.914 431.96 458.845 443.769 458.845H546.321C534.512 458.845 524.567 449.914 524.567 439.308Z" fill="#D3DCFB"/>
<path d="M524.567 619.051V507.968C524.567 497.362 534.512 488.431 546.321 488.431H443.769C431.96 488.431 422.016 497.362 422.016 507.968V619.051C422.016 629.657 431.96 638.588 443.769 638.588H546.321C534.512 638.03 524.567 629.657 524.567 619.051Z" fill="#D3DCFB"/>
<path d="M524.567 798.234V687.151C524.567 676.546 534.512 667.614 546.321 667.614H443.769C431.96 667.614 422.016 676.546 422.016 687.151V798.234C422.016 808.84 431.96 817.772 443.769 817.772H546.321C534.512 817.772 524.567 808.84 524.567 798.234Z" fill="#D3DCFB"/>
<path d="M579.258 371.207H493.488C484.786 371.207 477.328 364.509 477.328 356.694C477.328 348.879 484.786 342.181 493.488 342.181H579.88C588.581 342.181 596.039 348.879 596.039 356.694C595.418 364.509 588.581 371.207 579.258 371.207Z" fill="#3C58A0"/>
<path d="M688.647 425.353H493.488C484.786 425.353 477.328 418.654 477.328 410.84C477.328 403.025 484.786 396.326 493.488 396.326H689.268C697.969 396.326 705.428 403.025 705.428 410.84C705.428 418.654 697.969 425.353 688.647 425.353Z" fill="#BEC8F7"/>
<path d="M646.379 371.207H633.949C625.247 371.207 617.789 364.509 617.789 356.694C617.789 348.879 625.247 342.181 633.949 342.181H646.379C655.081 342.181 662.539 348.879 662.539 356.694C662.539 364.509 655.702 371.207 646.379 371.207Z" fill="#BEC8F7"/>
<path d="M579.258 550.391H493.488C484.786 550.391 477.328 543.692 477.328 535.878C477.328 528.063 484.786 521.364 493.488 521.364H579.88C588.581 521.364 596.039 528.063 596.039 535.878C596.039 543.692 588.581 550.391 579.258 550.391Z" fill="#3C58A0"/>
<path d="M688.647 605.095H493.488C484.786 605.095 477.328 598.397 477.328 590.582C477.328 582.767 484.786 576.068 493.488 576.068H689.268C697.969 576.068 705.428 582.767 705.428 590.582C704.806 598.397 697.969 605.095 688.647 605.095Z" fill="#BEC8F7"/>
<path d="M646.379 550.391H633.949C625.247 550.391 617.789 543.692 617.789 535.878C617.789 528.063 625.247 521.364 633.949 521.364H646.379C655.081 521.364 662.539 528.063 662.539 535.878C662.539 543.692 655.702 550.391 646.379 550.391Z" fill="#BEC8F7"/>
<path d="M579.258 730.133H493.488C484.786 730.133 477.328 723.435 477.328 715.62C477.328 707.805 484.786 701.106 493.488 701.106H579.88C588.581 701.106 596.039 707.805 596.039 715.62C595.418 723.435 588.581 730.133 579.258 730.133Z" fill="#3C58A0"/>
<path d="M688.647 784.28H493.488C484.786 784.28 477.328 777.581 477.328 769.766C477.328 761.951 484.786 755.253 493.488 755.253H689.268C697.969 755.253 705.428 761.951 705.428 769.766C704.806 778.139 697.969 784.28 688.647 784.28Z" fill="#BEC8F7"/>
<path d="M646.379 730.133H633.949C625.247 730.133 617.789 723.435 617.789 715.62C617.789 707.805 625.247 701.106 633.949 701.106H646.379C655.081 701.106 662.539 707.805 662.539 715.62C662.539 723.435 655.702 730.133 646.379 730.133Z" fill="#BEC8F7"/>
<path d="M417.662 533.645C400.88 549.833 372.912 550.949 355.509 535.878L280.926 474.475C262.902 459.404 261.659 434.284 278.44 418.655C295.221 402.467 323.19 401.35 340.593 416.422L414.554 477.824C433.2 492.338 434.443 517.457 417.662 533.645Z" fill="#F9BA8F"/>
<path d="M385.346 507.967L311.384 446.565C298.954 436.517 294.603 420.887 298.954 407.49C291.496 409.165 284.659 413.072 279.065 418.654C262.284 434.842 263.527 459.962 281.551 474.475L355.513 535.878C373.537 550.949 401.505 549.833 417.665 533.645C422.637 528.621 426.367 523.039 428.231 516.899C413.314 520.806 397.155 518.015 385.346 507.967Z" fill="#FCAD6D"/>
<path d="M417.665 750.229C400.884 766.417 372.915 767.533 355.513 752.462L281.551 691.059C263.527 675.988 262.284 650.868 279.065 635.239C295.846 619.051 323.815 617.934 341.218 633.006L415.179 694.408C433.203 708.922 434.446 734.041 417.665 750.229Z" fill="#F9BA8F"/>
<path d="M385.346 724.551L311.384 663.149C298.954 653.101 294.603 637.471 298.954 624.074C291.496 625.749 284.659 629.656 279.065 635.238C262.284 651.426 263.527 676.546 281.551 691.059L355.513 752.462C373.537 767.533 401.505 766.417 417.665 750.229C422.637 745.205 426.367 739.623 428.231 733.483C413.314 737.39 397.155 734.041 385.346 724.551Z" fill="#FCAD6D"/>
<path d="M417.665 641.937C400.884 658.125 372.915 659.241 355.513 644.17L281.551 582.767C263.527 567.696 262.284 542.576 279.065 526.947C295.846 510.759 323.815 509.642 341.218 524.714L415.179 586.116C433.203 600.63 434.446 625.749 417.665 641.937Z" fill="#F9BA8F"/>
<path d="M385.346 616.259L311.384 554.857C298.954 544.809 294.603 529.179 298.954 515.782C291.496 517.457 284.659 521.364 279.065 526.946C262.284 543.134 263.527 568.254 281.551 582.767L355.513 644.17C373.537 659.241 401.505 658.125 417.665 641.937C422.637 636.913 426.367 631.331 428.231 625.191C413.314 629.098 397.155 625.749 385.346 616.259Z" fill="#FCAD6D"/>
<path d="M1049.13 266.265C1020.54 298.641 995.06 345.53 1015.57 396.885C1054.11 492.896 1115.64 574.394 1087.05 716.179C1073.99 780.372 1116.88 807.725 1167.22 817.772C1200.16 755.811 1218.81 686.594 1218.81 614.027C1218.81 475.592 1153.55 352.228 1049.13 266.265Z" fill="#9181F2"/>
</svg>
