<svg width="1386" height="1170" viewBox="0 0 1386 1170" fill="none" xmlns="http://www.w3.org/2000/svg">
<path d="M318.224 929.413H1070.27C1075.24 925.506 1080.21 921.04 1085.19 916.575C1244.3 766.417 1261.08 406.933 1024.28 228.865C911.78 144.017 756.399 112.758 622.771 128.388C402.751 154.065 293.984 315.387 273.474 344.413C160.978 503.502 138.603 744.089 283.419 897.037C294.606 908.76 306.415 919.366 318.224 929.413Z" fill="#BFC8D6"/>
<path d="M320.705 798.793C313.246 798.793 307.031 793.211 307.031 787.071V351.112C307.031 344.414 313.246 339.39 320.705 331.017H1065.29C1072.75 339.39 1078.96 344.972 1078.96 351.112V787.071C1078.96 793.769 1072.75 798.793 1065.29 798.793H320.705Z" fill="#002F54"/>
<path d="M328.164 365.626C328.164 358.927 334.379 353.903 341.838 353.903H1043.54C1051 353.903 1057.21 359.485 1057.21 365.626V747.439C1057.21 754.137 1051 759.161 1043.54 759.161H342.459C335.001 759.161 328.786 753.579 328.786 747.439V365.626H328.164Z" fill="#C7E0FF"/>
<path d="M1187.73 930.53L716.615 917.691V916.017L692.997 916.575L668.758 916.017V917.691L198.264 930.53L195.156 936.112L206.344 983.559L218.153 991.374H668.758H716.615H1167.84L1179.65 983.559L1190.84 936.112L1187.73 930.53Z" fill="#002F54"/>
<path d="M212.562 936.112C202.618 936.112 196.403 933.879 198.267 930.53L303.305 774.79C304.548 773.115 312.006 771.441 320.708 769.208H1065.29C1074.62 771.441 1081.45 773.115 1082.7 774.79L1187.73 930.53C1189.6 933.321 1183.38 936.112 1173.44 936.112H212.562Z" fill="#055586"/>
<path d="M525.183 926.064C522.076 926.064 520.211 925.506 520.211 924.39L544.45 875.267C545.072 874.709 546.937 874.151 550.044 873.593H803.005C806.112 874.151 808.598 874.709 808.598 875.267L832.838 924.39C833.459 925.506 830.973 926.064 827.866 926.064H525.183Z" fill="#C7E0FF"/>
<path d="M930.417 342.181C930.417 346.088 926.688 349.437 922.338 349.437C917.987 349.437 914.258 346.088 914.258 342.181C914.258 338.273 917.987 334.924 922.338 334.924C926.688 334.366 930.417 337.715 930.417 342.181Z" fill="#C7E0FF"/>
<path d="M926.694 342.18C926.694 344.972 924.208 346.646 921.722 346.646C918.615 346.646 916.75 344.413 916.75 342.18C916.75 339.389 919.236 337.715 921.722 337.715C924.83 337.715 926.694 339.389 926.694 342.18Z" fill="#002F54"/>
<path d="M901.824 611.794H834.078V718.411H901.824V611.794Z" fill="#DF2938"/>
<path d="M763.848 595.048H696.102V718.411H763.848V595.048Z" fill="#DF2938"/>
<path d="M626.488 672.639H558.742V717.853H626.488V672.639Z" fill="#DF2938"/>
<path d="M488.512 704.456H420.766V718.411H488.512V704.456Z" fill="#DF2938"/>
<path d="M933.527 470.567H865.781V718.411H933.527V470.567Z" fill="#2D96B3"/>
<path d="M795.551 470.567H727.805V718.411H795.551V470.567Z" fill="#2D96B3"/>
<path d="M658.192 553.182H590.445V717.852H658.192V553.182Z" fill="#2D96B3"/>
<path d="M520.215 612.91H452.469V718.411H520.215V612.91Z" fill="#2D96B3"/>
<path d="M857.7 451.031L855.214 475.592L862.051 500.711L773.173 427.586L618.413 544.809L578.014 496.245L400.258 645.845V734.041L414.553 721.761L423.254 700.549L440.657 699.432L569.934 590.024L607.847 636.355L771.308 512.433L860.186 585L921.717 539.227L948.443 576.627L985.112 484.523L985.734 437.075L857.7 451.031Z" fill="#C7E0FF"/>
<path d="M971.441 457.171L887.535 466.66L904.316 489.547L857.08 525.272L767.581 451.589L610.335 571.045L571.179 523.039L414.555 654.776V692.734L567.45 563.23L605.984 610.119L766.959 487.872L855.837 560.997L921.097 512.433L937.878 535.878L971.441 457.171Z" fill="#055586"/>
<path d="M548.714 378.584L545.633 393.399L559.074 395.654L562.155 380.839L548.714 378.584Z" fill="#055586"/>
<path d="M519.332 387.266L510.422 396.581L523.15 406.402L532.06 397.087L519.332 387.266Z" fill="#055586"/>
<path d="M520.605 418.872L504.766 423.851L509.282 435.442L525.122 430.464L520.605 418.872Z" fill="#055586"/>
<path d="M536.111 438.664L533 453.475L546.437 455.751L549.548 440.941L536.111 438.664Z" fill="#055586"/>
<path d="M571.587 427.149L562.672 436.46L575.395 446.287L584.311 436.975L571.587 427.149Z" fill="#055586"/>
<path d="M585.283 398.684L569.445 403.664L573.963 415.254L589.801 410.275L585.283 398.684Z" fill="#055586"/>
<path d="M547.557 446.008C536.991 446.008 527.047 440.984 520.831 433.169C510.887 419.772 514.616 401.909 529.533 392.42C543.828 383.489 564.96 387.396 574.904 400.235C584.848 413.632 581.119 431.494 566.203 440.984C560.609 444.333 554.394 446.008 547.557 446.008ZM547.557 400.235C543.828 400.235 540.099 401.351 536.991 403.026C528.29 408.05 526.425 418.656 532.019 426.47C537.613 433.727 550.043 435.96 558.123 430.936C566.824 425.912 568.689 415.306 563.095 407.491C559.366 403.026 553.772 400.235 547.557 400.235Z" fill="#055586"/>
<path d="M339.687 419.79L334.062 446.672L364.604 451.827L370.229 424.945L339.687 419.79Z" fill="#055586"/>
<path d="M388.887 371.52L363.75 386.96L381.293 409.997L406.43 394.557L388.887 371.52Z" fill="#055586"/>
<path d="M431.049 363.709L425.328 391.142L455.262 396.177L460.983 368.744L431.049 363.709Z" fill="#055586"/>
<path d="M497.711 389.835L472.055 405.585L489.24 428.167L514.897 412.417L497.711 389.835Z" fill="#055586"/>
<path d="M493.526 445.784L487.922 472.668L518.467 477.803L524.07 450.919L493.526 445.784Z" fill="#055586"/>
<path d="M476.989 487.069L451.852 502.512L469.397 525.549L494.535 510.106L476.989 487.069Z" fill="#055586"/>
<path d="M402.293 501.307L396.547 528.737L426.478 533.795L432.224 506.364L402.293 501.307Z" fill="#055586"/>
<path d="M369.055 468.884L343.414 484.653L360.621 507.222L386.262 491.452L369.055 468.884Z" fill="#055586"/>
<path d="M429.47 518.575C403.988 518.575 379.748 507.41 365.453 488.431C340.592 456.055 349.915 412.515 385.342 390.745C398.394 382.93 413.31 378.465 428.849 378.465C454.331 378.465 478.571 389.629 492.866 408.608C517.105 440.426 507.782 483.966 472.355 505.736C459.925 514.109 445.008 518.575 429.47 518.575ZM428.849 406.375C419.526 406.375 410.203 409.166 402.123 413.632C380.37 427.029 375.397 453.264 389.693 472.243C398.394 483.966 413.31 490.664 428.849 490.664C438.171 490.664 447.494 487.873 455.574 483.408C477.328 470.011 482.3 443.775 468.005 424.796C459.303 413.074 445.008 406.375 428.849 406.375Z" fill="#055586"/>
</svg>
